<mxfile host="app.diagrams.net" modified="2021-03-01T14:20:26.709Z" agent="5.0 (Windows NT 10.0; Win64; x64) AppleWebKit/537.36 (KHTML, like Gecko) Chrome/88.0.4324.182 Safari/537.36 Edg/88.0.705.81" etag="CRLU04a-T9sUw0weZNtH" version="14.4.3" type="github">
  <diagram id="Vwi1EXBxK2TPIhp4Lb0i" name="Page-1">
    <mxGraphModel dx="1033" dy="951" grid="1" gridSize="10" guides="1" tooltips="1" connect="1" arrows="1" fold="1" page="1" pageScale="1" pageWidth="1654" pageHeight="1169" math="0" shadow="0">
      <root>
        <mxCell id="0" />
        <mxCell id="1" parent="0" />
        <mxCell id="HVTnf8Vjbv1rIwPG2XYA-1" value="" style="endArrow=none;html=1;" edge="1" parent="1">
          <mxGeometry width="50" height="50" relative="1" as="geometry">
            <mxPoint x="1340" y="210" as="sourcePoint" />
            <mxPoint x="1400" y="210" as="targetPoint" />
          </mxGeometry>
        </mxCell>
        <mxCell id="HVTnf8Vjbv1rIwPG2XYA-2" value="" style="endArrow=none;html=1;" edge="1" parent="1">
          <mxGeometry width="50" height="50" relative="1" as="geometry">
            <mxPoint x="1325" y="220" as="sourcePoint" />
            <mxPoint x="1385" y="220" as="targetPoint" />
          </mxGeometry>
        </mxCell>
        <mxCell id="HVTnf8Vjbv1rIwPG2XYA-3" value="" style="endArrow=none;html=1;exitX=1;exitY=0.25;exitDx=0;exitDy=0;jumpStyle=arc;rounded=0;" edge="1" parent="1" source="HVTnf8Vjbv1rIwPG2XYA-39">
          <mxGeometry width="50" height="50" relative="1" as="geometry">
            <mxPoint x="840" y="320" as="sourcePoint" />
            <mxPoint x="1341.3326710668102" y="210" as="targetPoint" />
            <Array as="points">
              <mxPoint x="860" y="450" />
              <mxPoint x="860" y="210" />
            </Array>
          </mxGeometry>
        </mxCell>
        <mxCell id="HVTnf8Vjbv1rIwPG2XYA-4" value="" style="endArrow=none;html=1;exitX=0.25;exitY=0;exitDx=0;exitDy=0;rounded=0;" edge="1" parent="1" source="HVTnf8Vjbv1rIwPG2XYA-42">
          <mxGeometry width="50" height="50" relative="1" as="geometry">
            <mxPoint x="975" y="440" as="sourcePoint" />
            <mxPoint x="1325" y="220" as="targetPoint" />
            <Array as="points">
              <mxPoint x="980" y="220" />
            </Array>
          </mxGeometry>
        </mxCell>
        <mxCell id="HVTnf8Vjbv1rIwPG2XYA-5" style="edgeStyle=orthogonalEdgeStyle;rounded=0;orthogonalLoop=1;jettySize=auto;html=1;exitX=0.5;exitY=1;exitDx=0;exitDy=0;entryX=0.5;entryY=1;entryDx=0;entryDy=0;fillColor=#f8cecc;strokeColor=#b85450;" edge="1" parent="1" source="HVTnf8Vjbv1rIwPG2XYA-53" target="HVTnf8Vjbv1rIwPG2XYA-39">
          <mxGeometry relative="1" as="geometry">
            <Array as="points">
              <mxPoint x="1460" y="680" />
              <mxPoint x="800" y="680" />
            </Array>
          </mxGeometry>
        </mxCell>
        <mxCell id="HVTnf8Vjbv1rIwPG2XYA-6" value="LO" style="edgeLabel;html=1;align=center;verticalAlign=middle;resizable=0;points=[];" vertex="1" connectable="0" parent="HVTnf8Vjbv1rIwPG2XYA-5">
          <mxGeometry x="-0.9669" y="-1" relative="1" as="geometry">
            <mxPoint as="offset" />
          </mxGeometry>
        </mxCell>
        <mxCell id="HVTnf8Vjbv1rIwPG2XYA-7" style="edgeStyle=orthogonalEdgeStyle;rounded=0;orthogonalLoop=1;jettySize=auto;html=1;exitX=0.25;exitY=1;exitDx=0;exitDy=0;entryX=0.75;entryY=1;entryDx=0;entryDy=0;fillColor=#f8cecc;strokeColor=#b85450;" edge="1" parent="1" source="HVTnf8Vjbv1rIwPG2XYA-53" target="HVTnf8Vjbv1rIwPG2XYA-39">
          <mxGeometry relative="1" as="geometry">
            <Array as="points">
              <mxPoint x="1445" y="670" />
              <mxPoint x="820" y="670" />
            </Array>
          </mxGeometry>
        </mxCell>
        <mxCell id="HVTnf8Vjbv1rIwPG2XYA-8" value="HI" style="edgeLabel;html=1;align=center;verticalAlign=middle;resizable=0;points=[];" vertex="1" connectable="0" parent="HVTnf8Vjbv1rIwPG2XYA-7">
          <mxGeometry x="-0.9623" relative="1" as="geometry">
            <mxPoint as="offset" />
          </mxGeometry>
        </mxCell>
        <mxCell id="HVTnf8Vjbv1rIwPG2XYA-9" style="edgeStyle=orthogonalEdgeStyle;rounded=0;orthogonalLoop=1;jettySize=auto;html=1;entryX=0.75;entryY=1;entryDx=0;entryDy=0;" edge="1" parent="1" source="HVTnf8Vjbv1rIwPG2XYA-59" target="HVTnf8Vjbv1rIwPG2XYA-16">
          <mxGeometry relative="1" as="geometry">
            <Array as="points">
              <mxPoint x="520" y="660" />
              <mxPoint x="340" y="660" />
            </Array>
            <mxPoint x="500" y="650" as="sourcePoint" />
          </mxGeometry>
        </mxCell>
        <mxCell id="HVTnf8Vjbv1rIwPG2XYA-10" style="edgeStyle=orthogonalEdgeStyle;rounded=0;orthogonalLoop=1;jettySize=auto;html=1;entryX=1;entryY=0.75;entryDx=0;entryDy=0;jumpStyle=arc;" edge="1" parent="1" source="HVTnf8Vjbv1rIwPG2XYA-59" target="HVTnf8Vjbv1rIwPG2XYA-46">
          <mxGeometry relative="1" as="geometry">
            <Array as="points">
              <mxPoint x="600" y="690" />
              <mxPoint x="1270" y="690" />
              <mxPoint x="1270" y="470" />
            </Array>
            <mxPoint x="620" y="670" as="sourcePoint" />
          </mxGeometry>
        </mxCell>
        <mxCell id="HVTnf8Vjbv1rIwPG2XYA-11" style="edgeStyle=orthogonalEdgeStyle;rounded=0;orthogonalLoop=1;jettySize=auto;html=1;jumpStyle=arc;" edge="1" parent="1" target="HVTnf8Vjbv1rIwPG2XYA-53">
          <mxGeometry relative="1" as="geometry">
            <Array as="points">
              <mxPoint x="1460" y="210" />
            </Array>
            <mxPoint x="1400" y="210" as="sourcePoint" />
          </mxGeometry>
        </mxCell>
        <mxCell id="HVTnf8Vjbv1rIwPG2XYA-12" style="edgeStyle=orthogonalEdgeStyle;rounded=0;orthogonalLoop=1;jettySize=auto;html=1;entryX=0.25;entryY=0;entryDx=0;entryDy=0;endFill=1;snapToPoint=0;" edge="1" parent="1" target="HVTnf8Vjbv1rIwPG2XYA-53">
          <mxGeometry relative="1" as="geometry">
            <Array as="points">
              <mxPoint x="1445" y="220" />
            </Array>
            <mxPoint x="1385" y="220" as="sourcePoint" />
          </mxGeometry>
        </mxCell>
        <mxCell id="HVTnf8Vjbv1rIwPG2XYA-13" value="PipelineController" style="rounded=0;whiteSpace=wrap;html=1;direction=south;fillColor=#dae8fc;strokeColor=#6c8ebf;" vertex="1" parent="1">
          <mxGeometry x="280" y="720" width="1210" height="40" as="geometry" />
        </mxCell>
        <mxCell id="HVTnf8Vjbv1rIwPG2XYA-14" style="edgeStyle=orthogonalEdgeStyle;rounded=0;orthogonalLoop=1;jettySize=auto;html=1;exitX=1;exitY=0.5;exitDx=0;exitDy=0;fillColor=#f8cecc;strokeColor=#b85450;" edge="1" parent="1" source="HVTnf8Vjbv1rIwPG2XYA-16" target="HVTnf8Vjbv1rIwPG2XYA-19">
          <mxGeometry relative="1" as="geometry" />
        </mxCell>
        <mxCell id="HVTnf8Vjbv1rIwPG2XYA-15" style="edgeStyle=orthogonalEdgeStyle;rounded=0;orthogonalLoop=1;jettySize=auto;html=1;entryX=0.25;entryY=1;entryDx=0;entryDy=0;" edge="1" parent="1" target="HVTnf8Vjbv1rIwPG2XYA-16">
          <mxGeometry relative="1" as="geometry">
            <mxPoint x="300" y="719.9999999999998" as="sourcePoint" />
          </mxGeometry>
        </mxCell>
        <mxCell id="HVTnf8Vjbv1rIwPG2XYA-16" value="PC" style="rounded=0;whiteSpace=wrap;html=1;fillColor=#dae8fc;strokeColor=#6c8ebf;" vertex="1" parent="1">
          <mxGeometry x="280" y="440" width="80" height="40" as="geometry" />
        </mxCell>
        <mxCell id="HVTnf8Vjbv1rIwPG2XYA-17" style="edgeStyle=orthogonalEdgeStyle;rounded=0;orthogonalLoop=1;jettySize=auto;html=1;exitX=1;exitY=0.5;exitDx=0;exitDy=0;entryX=0;entryY=0.5;entryDx=0;entryDy=0;fillColor=#f8cecc;strokeColor=#b85450;" edge="1" parent="1" source="HVTnf8Vjbv1rIwPG2XYA-19">
          <mxGeometry relative="1" as="geometry">
            <mxPoint x="480" y="459.9999999999998" as="targetPoint" />
          </mxGeometry>
        </mxCell>
        <mxCell id="HVTnf8Vjbv1rIwPG2XYA-18" style="edgeStyle=orthogonalEdgeStyle;rounded=0;orthogonalLoop=1;jettySize=auto;html=1;entryX=0.5;entryY=1;entryDx=0;entryDy=0;jumpStyle=arc;fillColor=#f8cecc;strokeColor=#b85450;" edge="1" parent="1" target="HVTnf8Vjbv1rIwPG2XYA-19">
          <mxGeometry relative="1" as="geometry">
            <mxPoint x="420" y="719.9999999999998" as="sourcePoint" />
          </mxGeometry>
        </mxCell>
        <mxCell id="HVTnf8Vjbv1rIwPG2XYA-19" value="IF&lt;br&gt;|&lt;br&gt;ID" style="rounded=0;whiteSpace=wrap;html=1;fillColor=#dae8fc;strokeColor=#6c8ebf;" vertex="1" parent="1">
          <mxGeometry x="400" y="280" width="40" height="360" as="geometry" />
        </mxCell>
        <mxCell id="HVTnf8Vjbv1rIwPG2XYA-20" style="edgeStyle=orthogonalEdgeStyle;rounded=0;orthogonalLoop=1;jettySize=auto;html=1;exitX=1;exitY=0.25;exitDx=0;exitDy=0;entryX=0;entryY=0.5;entryDx=0;entryDy=0;fillColor=#f8cecc;strokeColor=#b85450;" edge="1" parent="1" source="HVTnf8Vjbv1rIwPG2XYA-24" target="HVTnf8Vjbv1rIwPG2XYA-36">
          <mxGeometry relative="1" as="geometry" />
        </mxCell>
        <mxCell id="HVTnf8Vjbv1rIwPG2XYA-21" style="edgeStyle=orthogonalEdgeStyle;rounded=0;orthogonalLoop=1;jettySize=auto;html=1;exitX=1;exitY=0.5;exitDx=0;exitDy=0;entryX=-0.03;entryY=0.482;entryDx=0;entryDy=0;entryPerimeter=0;fillColor=#f8cecc;strokeColor=#b85450;" edge="1" parent="1" source="HVTnf8Vjbv1rIwPG2XYA-24" target="HVTnf8Vjbv1rIwPG2XYA-39">
          <mxGeometry relative="1" as="geometry" />
        </mxCell>
        <mxCell id="HVTnf8Vjbv1rIwPG2XYA-22" style="edgeStyle=orthogonalEdgeStyle;rounded=0;orthogonalLoop=1;jettySize=auto;html=1;entryX=0.5;entryY=1;entryDx=0;entryDy=0;jumpStyle=arc;fillColor=#f8cecc;strokeColor=#b85450;" edge="1" parent="1" target="HVTnf8Vjbv1rIwPG2XYA-24">
          <mxGeometry relative="1" as="geometry">
            <mxPoint x="700" y="719.9999999999998" as="sourcePoint" />
          </mxGeometry>
        </mxCell>
        <mxCell id="HVTnf8Vjbv1rIwPG2XYA-23" style="edgeStyle=orthogonalEdgeStyle;rounded=0;orthogonalLoop=1;jettySize=auto;html=1;exitX=0.25;exitY=0;exitDx=0;exitDy=0;entryX=0.75;entryY=0;entryDx=0;entryDy=0;" edge="1" parent="1" source="HVTnf8Vjbv1rIwPG2XYA-24" target="HVTnf8Vjbv1rIwPG2XYA-59">
          <mxGeometry relative="1" as="geometry">
            <Array as="points">
              <mxPoint x="690" y="240" />
              <mxPoint x="600" y="240" />
            </Array>
            <mxPoint x="620" y="240" as="targetPoint" />
          </mxGeometry>
        </mxCell>
        <mxCell id="HVTnf8Vjbv1rIwPG2XYA-24" value="ID&lt;br&gt;|&lt;br&gt;EX" style="rounded=0;whiteSpace=wrap;html=1;fillColor=#dae8fc;strokeColor=#6c8ebf;" vertex="1" parent="1">
          <mxGeometry x="680" y="280" width="40" height="360" as="geometry" />
        </mxCell>
        <mxCell id="HVTnf8Vjbv1rIwPG2XYA-25" style="edgeStyle=orthogonalEdgeStyle;rounded=0;orthogonalLoop=1;jettySize=auto;html=1;exitX=1;exitY=0.5;exitDx=0;exitDy=0;entryX=0;entryY=0.5;entryDx=0;entryDy=0;fillColor=#f8cecc;strokeColor=#b85450;" edge="1" parent="1" source="HVTnf8Vjbv1rIwPG2XYA-27" target="HVTnf8Vjbv1rIwPG2XYA-42">
          <mxGeometry relative="1" as="geometry" />
        </mxCell>
        <mxCell id="HVTnf8Vjbv1rIwPG2XYA-26" style="edgeStyle=orthogonalEdgeStyle;rounded=0;orthogonalLoop=1;jettySize=auto;html=1;entryX=0.5;entryY=1;entryDx=0;entryDy=0;jumpStyle=arc;fillColor=#f8cecc;strokeColor=#b85450;" edge="1" parent="1" target="HVTnf8Vjbv1rIwPG2XYA-27">
          <mxGeometry relative="1" as="geometry">
            <mxPoint x="900" y="719.9999999999998" as="sourcePoint" />
          </mxGeometry>
        </mxCell>
        <mxCell id="HVTnf8Vjbv1rIwPG2XYA-27" value="EX&lt;br&gt;|&lt;br&gt;MEM" style="rounded=0;whiteSpace=wrap;html=1;fillColor=#dae8fc;strokeColor=#6c8ebf;" vertex="1" parent="1">
          <mxGeometry x="880" y="280" width="40" height="360" as="geometry" />
        </mxCell>
        <mxCell id="HVTnf8Vjbv1rIwPG2XYA-28" style="edgeStyle=orthogonalEdgeStyle;rounded=0;orthogonalLoop=1;jettySize=auto;html=1;exitX=1;exitY=0.5;exitDx=0;exitDy=0;entryX=0;entryY=0.5;entryDx=0;entryDy=0;" edge="1" parent="1" source="HVTnf8Vjbv1rIwPG2XYA-32" target="HVTnf8Vjbv1rIwPG2XYA-46">
          <mxGeometry relative="1" as="geometry" />
        </mxCell>
        <mxCell id="HVTnf8Vjbv1rIwPG2XYA-29" style="edgeStyle=orthogonalEdgeStyle;rounded=0;orthogonalLoop=1;jettySize=auto;html=1;exitX=1;exitY=0.25;exitDx=0;exitDy=0;entryX=0;entryY=0.5;entryDx=0;entryDy=0;fillColor=#f8cecc;strokeColor=#b85450;" edge="1" parent="1" source="HVTnf8Vjbv1rIwPG2XYA-32" target="HVTnf8Vjbv1rIwPG2XYA-44">
          <mxGeometry relative="1" as="geometry" />
        </mxCell>
        <mxCell id="HVTnf8Vjbv1rIwPG2XYA-30" style="edgeStyle=orthogonalEdgeStyle;rounded=0;orthogonalLoop=1;jettySize=auto;html=1;exitX=1;exitY=0.75;exitDx=0;exitDy=0;entryX=0;entryY=0.5;entryDx=0;entryDy=0;" edge="1" parent="1" source="HVTnf8Vjbv1rIwPG2XYA-32" target="HVTnf8Vjbv1rIwPG2XYA-48">
          <mxGeometry relative="1" as="geometry" />
        </mxCell>
        <mxCell id="HVTnf8Vjbv1rIwPG2XYA-31" style="edgeStyle=orthogonalEdgeStyle;rounded=0;orthogonalLoop=1;jettySize=auto;html=1;entryX=0.5;entryY=1;entryDx=0;entryDy=0;jumpStyle=arc;" edge="1" parent="1" target="HVTnf8Vjbv1rIwPG2XYA-32">
          <mxGeometry relative="1" as="geometry">
            <mxPoint x="1100" y="719.9999999999998" as="sourcePoint" />
          </mxGeometry>
        </mxCell>
        <mxCell id="HVTnf8Vjbv1rIwPG2XYA-32" value="MEM&lt;br&gt;|&lt;br&gt;WB" style="rounded=0;whiteSpace=wrap;html=1;fillColor=#dae8fc;strokeColor=#6c8ebf;" vertex="1" parent="1">
          <mxGeometry x="1080" y="280" width="40" height="360" as="geometry" />
        </mxCell>
        <mxCell id="HVTnf8Vjbv1rIwPG2XYA-33" style="edgeStyle=orthogonalEdgeStyle;rounded=0;orthogonalLoop=1;jettySize=auto;html=1;exitX=1;exitY=0.5;exitDx=0;exitDy=0;entryX=0;entryY=0.5;entryDx=0;entryDy=0;fillColor=#f8cecc;strokeColor=#b85450;" edge="1" parent="1" target="HVTnf8Vjbv1rIwPG2XYA-24">
          <mxGeometry relative="1" as="geometry">
            <mxPoint x="640" y="459.9999999999998" as="sourcePoint" />
          </mxGeometry>
        </mxCell>
        <mxCell id="HVTnf8Vjbv1rIwPG2XYA-34" style="edgeStyle=orthogonalEdgeStyle;rounded=0;orthogonalLoop=1;jettySize=auto;html=1;exitX=0.5;exitY=1;exitDx=0;exitDy=0;" edge="1" parent="1" source="HVTnf8Vjbv1rIwPG2XYA-59">
          <mxGeometry relative="1" as="geometry">
            <mxPoint x="600" y="660" as="sourcePoint" />
            <mxPoint x="560" y="719.9999999999998" as="targetPoint" />
            <Array as="points">
              <mxPoint x="560" y="720" />
            </Array>
          </mxGeometry>
        </mxCell>
        <mxCell id="HVTnf8Vjbv1rIwPG2XYA-35" style="edgeStyle=orthogonalEdgeStyle;rounded=0;orthogonalLoop=1;jettySize=auto;html=1;exitX=0.5;exitY=1;exitDx=0;exitDy=0;entryX=0.5;entryY=0;entryDx=0;entryDy=0;fillColor=#f8cecc;strokeColor=#b85450;" edge="1" parent="1" source="HVTnf8Vjbv1rIwPG2XYA-36" target="HVTnf8Vjbv1rIwPG2XYA-39">
          <mxGeometry relative="1" as="geometry" />
        </mxCell>
        <mxCell id="HVTnf8Vjbv1rIwPG2XYA-36" value="MULT&lt;br&gt;DIV" style="rounded=0;whiteSpace=wrap;html=1;fillColor=#dae8fc;strokeColor=#6c8ebf;" vertex="1" parent="1">
          <mxGeometry x="760" y="350" width="80" height="40" as="geometry" />
        </mxCell>
        <mxCell id="HVTnf8Vjbv1rIwPG2XYA-37" style="edgeStyle=orthogonalEdgeStyle;rounded=0;orthogonalLoop=1;jettySize=auto;html=1;exitX=1;exitY=0.5;exitDx=0;exitDy=0;entryX=0;entryY=0.5;entryDx=0;entryDy=0;fillColor=#f8cecc;strokeColor=#b85450;" edge="1" parent="1" source="HVTnf8Vjbv1rIwPG2XYA-39" target="HVTnf8Vjbv1rIwPG2XYA-27">
          <mxGeometry relative="1" as="geometry" />
        </mxCell>
        <mxCell id="HVTnf8Vjbv1rIwPG2XYA-38" style="edgeStyle=orthogonalEdgeStyle;rounded=0;orthogonalLoop=1;jettySize=auto;html=1;exitX=0.25;exitY=1;exitDx=0;exitDy=0;jumpStyle=arc;fillColor=#f8cecc;strokeColor=#b85450;" edge="1" parent="1" source="HVTnf8Vjbv1rIwPG2XYA-39">
          <mxGeometry relative="1" as="geometry">
            <mxPoint x="780" y="719.9999999999998" as="targetPoint" />
          </mxGeometry>
        </mxCell>
        <mxCell id="HVTnf8Vjbv1rIwPG2XYA-39" value="ALU" style="rounded=0;whiteSpace=wrap;html=1;fillColor=#dae8fc;strokeColor=#6c8ebf;" vertex="1" parent="1">
          <mxGeometry x="760" y="440" width="80" height="40" as="geometry" />
        </mxCell>
        <mxCell id="HVTnf8Vjbv1rIwPG2XYA-40" style="edgeStyle=orthogonalEdgeStyle;rounded=0;orthogonalLoop=1;jettySize=auto;html=1;exitX=1;exitY=0.5;exitDx=0;exitDy=0;entryX=0;entryY=0.5;entryDx=0;entryDy=0;fillColor=#f8cecc;strokeColor=#b85450;" edge="1" parent="1" source="HVTnf8Vjbv1rIwPG2XYA-42" target="HVTnf8Vjbv1rIwPG2XYA-32">
          <mxGeometry relative="1" as="geometry" />
        </mxCell>
        <mxCell id="HVTnf8Vjbv1rIwPG2XYA-41" style="edgeStyle=orthogonalEdgeStyle;rounded=0;orthogonalLoop=1;jettySize=auto;html=1;exitX=0.5;exitY=1;exitDx=0;exitDy=0;jumpStyle=arc;" edge="1" parent="1" source="HVTnf8Vjbv1rIwPG2XYA-42">
          <mxGeometry relative="1" as="geometry">
            <mxPoint x="1000" y="719.9999999999998" as="targetPoint" />
          </mxGeometry>
        </mxCell>
        <mxCell id="HVTnf8Vjbv1rIwPG2XYA-42" value="MEM" style="rounded=0;whiteSpace=wrap;html=1;fillColor=#dae8fc;strokeColor=#6c8ebf;" vertex="1" parent="1">
          <mxGeometry x="960" y="440" width="80" height="40" as="geometry" />
        </mxCell>
        <mxCell id="HVTnf8Vjbv1rIwPG2XYA-43" style="edgeStyle=orthogonalEdgeStyle;rounded=0;orthogonalLoop=1;jettySize=auto;html=1;exitX=1;exitY=0.5;exitDx=0;exitDy=0;entryX=0;entryY=0.5;entryDx=0;entryDy=0;fillColor=#f8cecc;strokeColor=#b85450;" edge="1" parent="1" source="HVTnf8Vjbv1rIwPG2XYA-44" target="HVTnf8Vjbv1rIwPG2XYA-50">
          <mxGeometry relative="1" as="geometry" />
        </mxCell>
        <mxCell id="HVTnf8Vjbv1rIwPG2XYA-44" value="RegFIle" style="rounded=0;whiteSpace=wrap;html=1;fillColor=#dae8fc;strokeColor=#6c8ebf;" vertex="1" parent="1">
          <mxGeometry x="1160" y="350" width="80" height="40" as="geometry" />
        </mxCell>
        <mxCell id="HVTnf8Vjbv1rIwPG2XYA-45" style="edgeStyle=orthogonalEdgeStyle;rounded=0;orthogonalLoop=1;jettySize=auto;html=1;exitX=1;exitY=0.5;exitDx=0;exitDy=0;entryX=0;entryY=0.5;entryDx=0;entryDy=0;" edge="1" parent="1" source="HVTnf8Vjbv1rIwPG2XYA-46" target="HVTnf8Vjbv1rIwPG2XYA-52">
          <mxGeometry relative="1" as="geometry" />
        </mxCell>
        <mxCell id="HVTnf8Vjbv1rIwPG2XYA-46" value="CP0" style="rounded=0;whiteSpace=wrap;html=1;" vertex="1" parent="1">
          <mxGeometry x="1160" y="440" width="80" height="40" as="geometry" />
        </mxCell>
        <mxCell id="HVTnf8Vjbv1rIwPG2XYA-47" style="edgeStyle=orthogonalEdgeStyle;rounded=0;orthogonalLoop=1;jettySize=auto;html=1;exitX=1;exitY=0.5;exitDx=0;exitDy=0;entryX=0;entryY=0.5;entryDx=0;entryDy=0;fillColor=#f8cecc;strokeColor=#b85450;" edge="1" parent="1" source="HVTnf8Vjbv1rIwPG2XYA-48" target="HVTnf8Vjbv1rIwPG2XYA-53">
          <mxGeometry relative="1" as="geometry" />
        </mxCell>
        <mxCell id="HVTnf8Vjbv1rIwPG2XYA-48" value="HILO" style="rounded=0;whiteSpace=wrap;html=1;fillColor=#dae8fc;strokeColor=#6c8ebf;" vertex="1" parent="1">
          <mxGeometry x="1160" y="530" width="80" height="40" as="geometry" />
        </mxCell>
        <mxCell id="HVTnf8Vjbv1rIwPG2XYA-49" style="edgeStyle=orthogonalEdgeStyle;rounded=0;orthogonalLoop=1;jettySize=auto;html=1;exitX=0.25;exitY=0;exitDx=0;exitDy=0;entryX=0.25;entryY=0;entryDx=0;entryDy=0;" edge="1" parent="1" target="HVTnf8Vjbv1rIwPG2XYA-50">
          <mxGeometry relative="1" as="geometry">
            <mxPoint x="1325" y="220" as="sourcePoint" />
          </mxGeometry>
        </mxCell>
        <mxCell id="HVTnf8Vjbv1rIwPG2XYA-50" value="RegRead&lt;br&gt;Proxy" style="rounded=0;whiteSpace=wrap;html=1;fillColor=#dae8fc;strokeColor=#6c8ebf;" vertex="1" parent="1">
          <mxGeometry x="1310" y="330" width="60" height="80" as="geometry" />
        </mxCell>
        <mxCell id="HVTnf8Vjbv1rIwPG2XYA-51" style="edgeStyle=orthogonalEdgeStyle;rounded=0;orthogonalLoop=1;jettySize=auto;html=1;exitX=0.25;exitY=0;exitDx=0;exitDy=0;entryX=0.25;entryY=0;entryDx=0;entryDy=0;" edge="1" parent="1" target="HVTnf8Vjbv1rIwPG2XYA-52">
          <mxGeometry relative="1" as="geometry">
            <mxPoint x="1385" y="220" as="sourcePoint" />
          </mxGeometry>
        </mxCell>
        <mxCell id="HVTnf8Vjbv1rIwPG2XYA-52" value="CP0Read&lt;br&gt;Proxy" style="rounded=0;whiteSpace=wrap;html=1;" vertex="1" parent="1">
          <mxGeometry x="1370" y="420" width="60" height="80" as="geometry" />
        </mxCell>
        <mxCell id="HVTnf8Vjbv1rIwPG2XYA-53" value="HILORead&lt;br&gt;Proxy" style="rounded=0;whiteSpace=wrap;html=1;fillColor=#f8cecc;strokeColor=#b85450;" vertex="1" parent="1">
          <mxGeometry x="1430" y="510" width="60" height="80" as="geometry" />
        </mxCell>
        <mxCell id="HVTnf8Vjbv1rIwPG2XYA-54" style="edgeStyle=orthogonalEdgeStyle;rounded=0;orthogonalLoop=1;jettySize=auto;html=1;exitX=0.5;exitY=0;exitDx=0;exitDy=0;entryX=0.5;entryY=0;entryDx=0;entryDy=0;jumpStyle=arc;" edge="1" parent="1" target="HVTnf8Vjbv1rIwPG2XYA-50">
          <mxGeometry relative="1" as="geometry">
            <mxPoint x="1340" y="210" as="sourcePoint" />
          </mxGeometry>
        </mxCell>
        <mxCell id="HVTnf8Vjbv1rIwPG2XYA-55" style="edgeStyle=orthogonalEdgeStyle;rounded=0;orthogonalLoop=1;jettySize=auto;html=1;exitX=0.5;exitY=0;exitDx=0;exitDy=0;entryX=0.5;entryY=0;entryDx=0;entryDy=0;jumpStyle=arc;" edge="1" parent="1" target="HVTnf8Vjbv1rIwPG2XYA-52">
          <mxGeometry relative="1" as="geometry">
            <mxPoint x="1400" y="210" as="sourcePoint" />
          </mxGeometry>
        </mxCell>
        <mxCell id="HVTnf8Vjbv1rIwPG2XYA-56" style="edgeStyle=orthogonalEdgeStyle;rounded=0;orthogonalLoop=1;jettySize=auto;html=1;exitX=0.75;exitY=0;exitDx=0;exitDy=0;jumpStyle=arc;entryX=0.5;entryY=0;entryDx=0;entryDy=0;fillColor=#f8cecc;strokeColor=#b85450;" edge="1" parent="1" source="HVTnf8Vjbv1rIwPG2XYA-50" target="HVTnf8Vjbv1rIwPG2XYA-59">
          <mxGeometry relative="1" as="geometry">
            <Array as="points">
              <mxPoint x="1355" y="200" />
              <mxPoint x="560" y="200" />
            </Array>
            <mxPoint x="600" y="200" as="targetPoint" />
          </mxGeometry>
        </mxCell>
        <mxCell id="HVTnf8Vjbv1rIwPG2XYA-57" style="edgeStyle=orthogonalEdgeStyle;rounded=0;orthogonalLoop=1;jettySize=auto;html=1;entryX=0.75;entryY=0;entryDx=0;entryDy=0;jumpStyle=arc;" edge="1" parent="1" target="HVTnf8Vjbv1rIwPG2XYA-24">
          <mxGeometry relative="1" as="geometry">
            <Array as="points">
              <mxPoint x="710" y="190" />
            </Array>
            <mxPoint x="1000" y="190" as="sourcePoint" />
          </mxGeometry>
        </mxCell>
        <mxCell id="HVTnf8Vjbv1rIwPG2XYA-58" style="edgeStyle=orthogonalEdgeStyle;rounded=0;orthogonalLoop=1;jettySize=auto;html=1;entryX=0.5;entryY=0;entryDx=0;entryDy=0;jumpStyle=arc;" edge="1" parent="1" target="HVTnf8Vjbv1rIwPG2XYA-42">
          <mxGeometry relative="1" as="geometry">
            <mxPoint x="1000" y="190" as="sourcePoint" />
          </mxGeometry>
        </mxCell>
        <mxCell id="HVTnf8Vjbv1rIwPG2XYA-59" value="&lt;blockquote style=&quot;margin: 0 0 0 40px ; border: none ; padding: 0px&quot;&gt;&lt;/blockquote&gt;" style="rounded=0;whiteSpace=wrap;html=1;align=left;" vertex="1" parent="1">
          <mxGeometry x="480" y="270" width="160" height="360" as="geometry" />
        </mxCell>
        <mxCell id="HVTnf8Vjbv1rIwPG2XYA-60" value="OperandGen" style="rounded=0;whiteSpace=wrap;html=1;fillColor=#dae8fc;strokeColor=#6c8ebf;" vertex="1" parent="1">
          <mxGeometry x="520" y="280" width="80" height="40" as="geometry" />
        </mxCell>
        <mxCell id="HVTnf8Vjbv1rIwPG2XYA-61" value="CP0Gen" style="rounded=0;whiteSpace=wrap;html=1;" vertex="1" parent="1">
          <mxGeometry x="520" y="480" width="80" height="40" as="geometry" />
        </mxCell>
        <mxCell id="HVTnf8Vjbv1rIwPG2XYA-62" value="ExceptionGen" style="rounded=0;whiteSpace=wrap;html=1;" vertex="1" parent="1">
          <mxGeometry x="520" y="530" width="80" height="40" as="geometry" />
        </mxCell>
        <mxCell id="HVTnf8Vjbv1rIwPG2XYA-63" value="FunctGen" style="rounded=0;whiteSpace=wrap;html=1;fillColor=#dae8fc;strokeColor=#6c8ebf;" vertex="1" parent="1">
          <mxGeometry x="520" y="380" width="80" height="40" as="geometry" />
        </mxCell>
        <mxCell id="HVTnf8Vjbv1rIwPG2XYA-64" value="MemGen" style="rounded=0;whiteSpace=wrap;html=1;" vertex="1" parent="1">
          <mxGeometry x="520" y="430" width="80" height="40" as="geometry" />
        </mxCell>
        <mxCell id="HVTnf8Vjbv1rIwPG2XYA-65" value="BranchGen" style="rounded=0;whiteSpace=wrap;html=1;" vertex="1" parent="1">
          <mxGeometry x="520" y="580" width="80" height="40" as="geometry" />
        </mxCell>
        <mxCell id="HVTnf8Vjbv1rIwPG2XYA-66" value="RegGen" style="rounded=0;whiteSpace=wrap;html=1;fillColor=#dae8fc;strokeColor=#6c8ebf;" vertex="1" parent="1">
          <mxGeometry x="520" y="330" width="80" height="40" as="geometry" />
        </mxCell>
        <mxCell id="HVTnf8Vjbv1rIwPG2XYA-67" style="edgeStyle=orthogonalEdgeStyle;rounded=0;orthogonalLoop=1;jettySize=auto;html=1;exitX=0.5;exitY=1;exitDx=0;exitDy=0;" edge="1" parent="1" source="HVTnf8Vjbv1rIwPG2XYA-59" target="HVTnf8Vjbv1rIwPG2XYA-59">
          <mxGeometry x="480" y="270" as="geometry" />
        </mxCell>
        <mxCell id="HVTnf8Vjbv1rIwPG2XYA-68" value="" style="endArrow=none;html=1;entryX=0.75;entryY=0;entryDx=0;entryDy=0;rounded=0;jumpStyle=arc;" edge="1" parent="1" target="HVTnf8Vjbv1rIwPG2XYA-52">
          <mxGeometry width="50" height="50" relative="1" as="geometry">
            <mxPoint x="1000" y="190" as="sourcePoint" />
            <mxPoint x="1220" y="410" as="targetPoint" />
            <Array as="points">
              <mxPoint x="1415" y="190" />
            </Array>
          </mxGeometry>
        </mxCell>
        <mxCell id="HVTnf8Vjbv1rIwPG2XYA-69" style="edgeStyle=orthogonalEdgeStyle;rounded=0;jumpStyle=arc;orthogonalLoop=1;jettySize=auto;html=1;exitX=0.5;exitY=0;exitDx=0;exitDy=0;endFill=1;entryX=0.5;entryY=0;entryDx=0;entryDy=0;" edge="1" parent="1" target="HVTnf8Vjbv1rIwPG2XYA-46">
          <mxGeometry relative="1" as="geometry">
            <mxPoint x="517.5845336914062" y="270" as="sourcePoint" />
            <Array as="points">
              <mxPoint x="518" y="170" />
              <mxPoint x="1290" y="170" />
              <mxPoint x="1290" y="420" />
              <mxPoint x="1200" y="420" />
            </Array>
          </mxGeometry>
        </mxCell>
        <mxCell id="HVTnf8Vjbv1rIwPG2XYA-70" style="edgeStyle=orthogonalEdgeStyle;rounded=0;orthogonalLoop=1;jettySize=auto;html=1;exitX=0.75;exitY=0;exitDx=0;exitDy=0;entryX=1;entryY=0.25;entryDx=0;entryDy=0;jumpStyle=arc;" edge="1" parent="1" source="HVTnf8Vjbv1rIwPG2XYA-42" target="HVTnf8Vjbv1rIwPG2XYA-46">
          <mxGeometry relative="1" as="geometry">
            <Array as="points">
              <mxPoint x="1020" y="250" />
              <mxPoint x="1270" y="250" />
              <mxPoint x="1270" y="450" />
            </Array>
          </mxGeometry>
        </mxCell>
        <mxCell id="HVTnf8Vjbv1rIwPG2XYA-71" style="edgeStyle=orthogonalEdgeStyle;rounded=0;jumpStyle=arc;orthogonalLoop=1;jettySize=auto;html=1;entryX=0.5;entryY=0;entryDx=0;entryDy=0;endFill=1;fillColor=#f8cecc;strokeColor=#b85450;" edge="1" parent="1" target="HVTnf8Vjbv1rIwPG2XYA-44">
          <mxGeometry relative="1" as="geometry">
            <mxPoint x="530" y="270" as="sourcePoint" />
            <Array as="points">
              <mxPoint x="530" y="270" />
              <mxPoint x="530" y="180" />
              <mxPoint x="1200" y="180" />
            </Array>
          </mxGeometry>
        </mxCell>
      </root>
    </mxGraphModel>
  </diagram>
</mxfile>
